{
	"asset":{
		"generator":"Khronos glTF Blender I/O v4.0.44",
		"version":"2.0"
	},
	"scene":0,
	"scenes":[
		{
			"name":"Scene",
			"nodes":[
				0
			]
		}
	],
	"nodes":[
		{
			"mesh":0,
			"name":"Ch43"
		}
	],
	"materials":[
		{
			"doubleSided":true,
			"name":"Material.001",
			"pbrMetallicRoughness":{
				"baseColorFactor":[
					0.800000011920929,
					0.800000011920929,
					0.800000011920929,
					1
				],
				"metallicFactor":0,
				"roughnessFactor":0.5
			}
		}
	],
	"meshes":[
		{
			"name":"Mesh",
			"primitives":[
				{
					"attributes":{
						"POSITION":0,
						"NORMAL":1,
						"TEXCOORD_0":2
					},
					"indices":3,
					"material":0
				}
			]
		}
	],
	"accessors":[
		{
			"bufferView":0,
			"componentType":5126,
			"count":26579,
			"max":[
				1.1336506605148315,
				1.7902255058288574,
				0.41315630078315735
			],
			"min":[
				-1.133650541305542,
				-0.0052919392473995686,
				-0.26054316759109497
			],
			"type":"VEC3"
		},
		{
			"bufferView":1,
			"componentType":5126,
			"count":26579,
			"type":"VEC3"
		},
		{
			"bufferView":2,
			"componentType":5126,
			"count":26579,
			"type":"VEC2"
		},
		{
			"bufferView":3,
			"componentType":5123,
			"count":148728,
			"type":"SCALAR"
		}
	],
	"bufferViews":[
		{
			"buffer":0,
			"byteLength":318948,
			"byteOffset":0,
			"target":34962
		},
		{
			"buffer":0,
			"byteLength":318948,
			"byteOffset":318948,
			"target":34962
		},
		{
			"buffer":0,
			"byteLength":212632,
			"byteOffset":637896,
			"target":34962
		},
		{
			"buffer":0,
			"byteLength":297456,
			"byteOffset":850528,
			"target":34963
		}
	],
	"buffers":[
		{
			"byteLength":1147984,
			"uri":"skibidi-withoutSkin.bin"
		}
	]
}
